# xmcd CD database file
#
# Track frame offsets:
#	150
#	19780
#	37645
#	52115
#	78877
#	95802
#	112552
#	129722
#	145235
#	164400
#	182332
#	202675
#	220477
#	242340
#
# Disc length: 3477 seconds
#
# Revision: 3
# Processed by: cddbd v1.4PL0 Copyright (c) Steve Scherf et al.
# Submitted via: CDex 1.50beta8
#
DISCID=ad0d930e
DTITLE=Shaggy - Mr Lover Lover (The Best Of Shaggy ... Part1)
DYEAR=1900
DGENRE=
TTITLE0=Boombastic (Sting Remix)
TTITLE1=In The Summertime - Shaggy Feat. Rayvon
TTITLE2=Oh Carolina
TTITLE3=Luv Me Luv Me - Shaggy Feat. Janet Jackson
TTITLE4=Nice And Lovely
TTITLE5=The Train Is Coming
TTITLE6=Why You Treat Me So Bad
TTITLE7=Big Up - Shaggy Feat. Rayvon
TTITLE8=Piece Of My Heart
TTITLE9=Sexy Body Girl
TTITLE10=Something Different
TTITLE11=That Girl
TTITLE12=Get Up, Stand Up
TTITLE13=Boombastic
EXTD=
EXTT0=
EXTT1=
EXTT2=
EXTT3=
EXTT4=
EXTT5=
EXTT6=
EXTT7=
EXTT8=
EXTT9=
EXTT10=
EXTT11=
EXTT12=
EXTT13=
PLAYORDER=
